<?xml version="1.0" encoding="utf-8"?>
<!-- Svg Vector Icons : http://www.onlinewebfonts.com/icon -->
<!DOCTYPE svg PUBLIC "-//W3C//DTD SVG 1.1//EN" "http://www.w3.org/Graphics/SVG/1.1/DTD/svg11.dtd">
<svg version="1.1" xmlns="http://www.w3.org/2000/svg" xmlns:xlink="http://www.w3.org/1999/xlink" x="0px" y="0px" viewBox="0 0 256 256" enable-background="new 0 0 256 256" xml:space="preserve">
<metadata> Svg Vector Icons : http://www.onlinewebfonts.com/icon </metadata>
<g><g><path fill="#000000" d="M120,211.5l20,17L120,246V211.5z"/><path fill="#000000" d="M130,10l-19.5,17.5l19.5,17V10z"/><path fill="#000000" d="M132,225.5c-1.5,0-3,0-4.5,0c-53.5,0-97-43.5-97-97C30.5,108,38,87,49,71l-5-5c-13,17-20.5,39-20.5,62.5C23.5,186,70.5,233,128,233c1.5,0,3,0,4.5,0L132,225.5z"/><path fill="#000000" d="M118,31.5c3.5-0.5,6.5-0.5,10-0.5c53.5,0,97,43.5,97,97c0,13-4,29-8.5,40.5l6.5,3.5c6-13.5,9.5-28,9.5-43.5C232.5,71,185.5,24,128,24c-3.5,0-7,0-10.5,0.5L118,31.5z"/></g></g>
</svg>