<?xml version="1.0" encoding="utf-8"?>
<!-- Svg Vector Icons : http://www.onlinewebfonts.com/icon -->
<!DOCTYPE svg PUBLIC "-//W3C//DTD SVG 1.1//EN" "http://www.w3.org/Graphics/SVG/1.1/DTD/svg11.dtd">
<svg version="1.1" xmlns="http://www.w3.org/2000/svg" xmlns:xlink="http://www.w3.org/1999/xlink" x="0px" y="0px" viewBox="0 0 256 256" enable-background="new 0 0 256 256" xml:space="preserve">
<metadata> Svg Vector Icons : http://www.onlinewebfonts.com/icon </metadata>
<g><g><g><g><g id="circle_83_"><g><path fill="#000000" d="M128,10C62.8,10,10,62.8,10,128c0,65.2,52.8,118,118,118c65.2,0,118-52.8,118-118C246,62.8,193.2,10,128,10z M150.8,150.1L126,187.4c-1.4,2-3.9,3.4-6.4,3.3c-2.5-0.1-6.3-0.9-6.3-7.8c0-8.8,10.6-43.8,10.6-43.8s-1.7,0-3.4,0h-18.4c-7,0-11.1-3.9-11.1-11.1c0-4.2,6.2-11.7,11.3-19.7l26.9-39.9c1.4-2,4.6-3.4,7-3.3c2.5,0.1,6.3,2,6.3,7.3c-0.8,6.3-11,44.3-11.3,44.3h22.5c6.1,0,11.1,5,11.1,11.1C164.9,130.7,157.1,142.2,150.8,150.1z M153.8,124.3h-25.5c-1.7,0-4.1-0.2-4.1-3.6c0-4.9,0-3.9,0-3.9L137,76.3c0-2.7-0.7-3.3-2.7-3.3c-2,0-2.5,1.7-3.6,3.4l-21.8,35.3c-1.3,1.9-10.4,13.8-10.4,15.8c0,2,1.6,4.3,3.7,4.3h25c2.3,0,4.5,0.7,4.5,3.7c0,2-0.1,3.7-0.1,3.7l-13.4,40.5c0,2.7,0.8,3.3,2.8,3.3c2,0,2.5-1.7,3.6-3.4l22.1-33.9c1.2-1.9,10.7-15.6,10.7-17.7C157.5,125.9,155.9,124.3,153.8,124.3z"/></g></g></g></g><g></g><g></g><g></g><g></g><g></g><g></g><g></g><g></g><g></g><g></g><g></g><g></g><g></g><g></g><g></g></g></g>
</svg>